# xmcd
#
# Track frame offsets:
#  182
#  15775
#  27905
#  39637
#  60935
#  71772
#  85395
#  97795
#  109917
#  117065
#  129057
#  143032
#  155635
#  167557
#  177637
#  190242
#
# Disc length: 2636 seconds
#
# Revision: 0
# Processed by: cddbd v1.4PL0 Copyright (c) Steve Scherf et al.
# Submitted via: AltoMP3_Maker 3.0
#
DISCID=c60a4a10
DTITLE=Smiley Bates - Country Tears
DYEAR=1900
DGENRE=
TTITLE0=Don't Tell Jeannie I'm Blind
TTITLE1=Teardrops At Midnight
TTITLE2=The Hour The Night Spots Die
TTITLE3=Golden Guitar
TTITLE4=How The Mind Holds A Memory
TTITLE5=Bottle Please Let Go Of Me
TTITLE6=Swinging Doors
TTITLE7=Jeannie's Afraid Of The Dark
TTITLE8=Is It Right Or Wrong
TTITLE9=Life Turned Her That Way
TTITLE10=Will You Love Me When I'm Old And Feeble
TTITLE11=All Our Love Is Gone
TTITLE12=Married By The Bible
TTITLE13=Bottom Of The Bottle
TTITLE14=Hall Of Shame
TTITLE15=The Heart Still Feels The Same
EXTD=
EXTT0=
EXTT1=
EXTT2=
EXTT3=
EXTT4=
EXTT5=
EXTT6=
EXTT7=
EXTT8=
EXTT9=
EXTT10=
EXTT11=
EXTT12=
EXTT13=
EXTT14=
EXTT15=
PLAYORDER=
